<svg width="201" height="60" viewBox="0 0 201 60" fill="none" xmlns="http://www.w3.org/2000/svg">
<g clip-path="url(#clip0_822:36379)">
<path d="M65.6729 17.6374C65.6729 12.2093 65.69 6.79833 65.6558 1.37025C65.6558 0.668193 65.8099 0.462714 66.5291 0.462714C69.5601 0.49696 72.574 0.565454 75.605 0.462714C79.7491 0.325727 83.7219 3.35655 84.7837 7.68874C85.5885 10.9935 84.9035 14.0072 82.7459 16.6442C82.3691 17.1066 82.5061 17.2607 82.8486 17.5689C85.1261 19.6066 86.2392 22.1922 86.1536 25.223C86.0166 30.7538 81.7869 34.8292 76.5811 34.7264C73.1905 34.6579 69.7828 34.6922 66.3921 34.7264C65.7757 34.7264 65.6387 34.5552 65.6387 33.9559C65.6729 28.5278 65.6729 23.0826 65.6729 17.6374ZM70.0567 25.0175C70.0567 26.5072 70.0739 27.9798 70.0396 29.4696C70.0225 29.9833 70.1595 30.1545 70.7075 30.1374C72.7624 30.1031 74.8173 30.1031 76.8551 30.1374C78.4648 30.1545 79.732 29.5381 80.6909 28.3052C81.941 26.6956 82.1636 24.8805 81.393 22.997C80.6738 21.2161 79.3724 20.1374 77.4202 19.9661C75.1255 19.7607 72.8138 19.9319 70.502 19.8805C70.0054 19.8634 70.0396 20.1716 70.0396 20.497C70.0567 21.9867 70.0567 23.5107 70.0567 25.0175ZM70.0567 10.2572C70.0567 11.7127 70.091 13.1682 70.0396 14.6237C70.0225 15.2401 70.228 15.3942 70.8102 15.3771C72.3172 15.3429 73.8412 15.2915 75.331 15.3771C78.3963 15.5826 81.0677 13.0826 80.6909 9.50381C80.4512 7.10655 78.362 5.13737 75.9475 5.12025C74.2179 5.10313 72.4713 5.13737 70.7417 5.10313C70.1595 5.086 70.0225 5.27436 70.0396 5.82231C70.0739 7.29491 70.0567 8.76751 70.0567 10.2572Z" fill="white"/>
<path d="M132.425 34.7263C131.004 34.7263 129.651 34.6921 128.315 34.7435C127.802 34.7606 127.733 34.4524 127.613 34.0928C126.072 29.6407 124.514 25.2058 123.007 20.7537C122.784 20.0859 122.493 19.8291 121.757 19.8462C119.907 19.9147 118.041 19.8976 116.191 19.8462C115.455 19.8291 115.232 20.0003 115.232 20.7709C115.267 25.103 115.232 29.4352 115.267 33.7845C115.284 34.6065 115.01 34.7948 114.273 34.7435C113.417 34.675 112.561 34.6921 111.705 34.7435C111.054 34.7777 110.831 34.6065 110.849 33.9215C110.883 30.6339 110.866 27.3633 110.866 24.0757C110.866 16.49 110.883 8.90442 110.849 1.30169C110.849 0.616756 111.02 0.462646 111.688 0.462646C115.198 0.496893 118.709 0.496893 122.219 0.47977C126.483 0.462646 130.473 3.71607 131.209 8.52771C131.774 12.1921 130.679 15.3257 127.887 17.8085C127.785 17.9113 127.562 18.0825 127.562 18.0825C127.562 18.0825 126.911 18.8359 127.134 19.4524C128.778 24.127 130.405 28.8188 132.031 33.4935C132.151 33.8702 132.271 34.2469 132.425 34.7263ZM119.274 5.10306C118.126 5.10306 116.996 5.12018 115.849 5.08593C115.369 5.06881 115.215 5.20579 115.215 5.70237C115.232 8.69894 115.232 11.6784 115.215 14.675C115.215 15.2058 115.369 15.3599 115.9 15.3428C117.921 15.3085 119.942 15.3257 121.962 15.3257C123.777 15.3257 125.233 14.5722 126.175 13.0311C127.254 11.2674 127.305 9.401 126.312 7.60305C125.387 5.90785 123.897 5.01744 121.894 5.08593C121.055 5.12018 120.164 5.10306 119.274 5.10306Z" fill="white"/>
<path d="M89.3921 17.5859C89.3921 12.1579 89.4092 6.74689 89.375 1.31881C89.375 0.668126 89.512 0.462646 90.2141 0.462646C95.7795 0.496893 101.345 0.496893 106.91 0.462646C107.63 0.462646 107.767 0.685249 107.732 1.33593C107.681 2.24347 107.664 3.16813 107.732 4.07566C107.801 4.88045 107.578 5.1373 106.722 5.1373C102.663 5.08593 98.6221 5.1373 94.5637 5.10306C93.8273 5.10306 93.6903 5.32566 93.7074 6.01059C93.7417 8.83593 93.7417 11.6613 93.7074 14.4866C93.6903 15.1716 93.8444 15.3942 94.5808 15.3942C97.9714 15.3599 101.379 15.3942 104.77 15.3599C105.42 15.3599 105.592 15.5311 105.557 16.1647C105.506 17.1579 105.506 18.1681 105.557 19.1613C105.592 19.7606 105.403 19.9147 104.804 19.9147C101.379 19.8805 97.9543 19.9147 94.5294 19.8805C93.9129 19.8805 93.6903 19.9832 93.7074 20.6681C93.7417 23.5791 93.7417 26.49 93.7074 29.401C93.7074 29.9832 93.8444 30.1716 94.4438 30.1544C98.5879 30.1202 102.715 30.1544 106.859 30.1202C107.51 30.1202 107.784 30.2572 107.732 30.9592C107.664 31.9181 107.664 32.8942 107.732 33.8702C107.784 34.5722 107.578 34.7777 106.859 34.7777C102.184 34.7435 97.4919 34.7606 92.817 34.7606C91.9265 34.7606 91.0361 34.7092 90.1627 34.7777C89.4777 34.8291 89.375 34.5722 89.375 33.9558C89.3921 28.4935 89.3921 23.0311 89.3921 17.5859Z" fill="white"/>
<path d="M18.377 16.644C18.377 14.1954 18.3941 11.7296 18.3599 9.28098C18.3599 8.81865 18.4797 8.49331 18.8051 8.15084C21.0655 5.78783 23.3259 3.40769 25.5521 1.01043C25.9288 0.616592 26.2884 0.479606 26.8022 0.479606C29.1482 0.462482 31.4942 0.359743 33.6519 1.52413C37.2137 3.42481 39.2515 6.40427 39.7653 10.4111C39.9708 11.9522 39.9194 11.9522 38.344 11.9522C37.6247 11.9522 36.9226 11.918 36.2034 11.9693C35.6897 12.0036 35.5184 11.8324 35.4842 11.3015C35.2273 7.50016 32.0593 4.79468 28.2577 5.05153C27.9495 5.06865 27.744 5.18851 27.5214 5.41112C26.0316 7.02071 24.5246 8.61317 23.0006 10.1885C22.7437 10.4625 22.6581 10.7365 22.6581 11.1132C22.6752 15.1714 22.6409 19.2125 22.6752 23.2707C22.7094 26.4557 24.4733 28.87 27.3159 29.8289C30.3983 30.8735 33.2923 29.0926 34.5766 26.9522C35.1417 26.0276 35.5184 25.0002 35.5184 23.9043C35.5184 23.442 35.6726 23.2536 36.1692 23.2707C37.2309 23.305 38.2755 23.2878 39.3372 23.2707C39.7653 23.2536 39.9536 23.3735 39.9194 23.8358C39.6283 28.9899 36.1349 33.9043 30.2955 34.7091C26.0829 35.2913 21.5279 32.6885 19.5928 28.5789C18.7709 26.8837 18.3427 25.12 18.3599 23.2365C18.3941 21.0447 18.377 18.8358 18.377 16.644Z" fill="white"/>
<path d="M39.8828 0.47978C41.4069 0.47978 42.7939 0.514027 44.1981 0.462657C44.7119 0.445534 44.7804 0.770876 44.9345 1.09622C47.0921 5.90787 49.2327 10.7195 51.3903 15.5483C51.476 15.7366 51.5616 15.9421 51.7157 16.2675C52.6747 14.1442 53.5822 12.1407 54.4727 10.1202C55.8084 7.12362 57.1612 4.10992 58.4798 1.09622C58.6682 0.651013 58.8908 0.445534 59.4216 0.462657C60.7573 0.514027 62.093 0.47978 63.5657 0.47978C62.7609 2.27773 61.9903 3.99006 61.2368 5.71951C58.8908 10.9592 56.579 16.1818 54.233 21.4044C53.9761 21.9695 53.8734 22.5175 53.8734 23.1339C53.8905 26.6955 53.8562 30.2572 53.9076 33.836C53.9247 34.6236 53.685 34.7949 52.9658 34.7435C52.1438 34.675 51.3047 34.6579 50.4828 34.7435C49.6437 34.8291 49.5238 34.4866 49.5409 33.7503C49.5752 30.1031 49.558 26.4558 49.558 22.7914C49.558 22.3462 49.4724 21.9524 49.3012 21.5586C46.2702 14.812 43.2563 8.0654 40.2424 1.3017C40.1397 1.0791 40.0369 0.839369 39.8828 0.47978Z" fill="white"/>
<path d="M20.7568 46.7472C20.7568 47.7918 20.7568 48.8363 20.7568 49.8637C20.7568 52.8602 20.7568 55.8568 20.7568 58.8363C20.7568 59.1445 20.7054 59.2815 20.3629 59.2644C19.8321 59.2301 19.2841 59.2301 18.7532 59.2644C18.4279 59.2815 18.3765 59.1616 18.3765 58.8705C18.3936 56.0965 18.3765 53.3226 18.3765 50.5657C18.3765 47.2952 18.3936 44.0075 18.3594 40.737C18.3594 40.326 18.4621 40.2404 18.856 40.2575C19.4896 40.2918 20.1232 40.2746 20.7568 40.2575C21.0479 40.2404 21.1506 40.3431 21.2534 40.6171C22.6747 44.7267 24.1131 48.8363 25.5687 53.0486C25.8085 52.3465 26.0482 51.713 26.2537 51.0965C27.4695 47.6034 28.6682 44.1103 29.884 40.6171C29.9697 40.3603 30.0895 40.2404 30.3806 40.2575C31.0485 40.2918 31.7163 40.2746 32.3671 40.2575C32.6239 40.2575 32.7267 40.326 32.7095 40.6C32.6924 41.1479 32.7095 41.713 32.7095 42.2609C32.7095 47.7746 32.7095 53.2883 32.7267 58.7849C32.7267 59.1787 32.6239 59.2986 32.2301 59.2815C31.7335 59.2472 31.2197 59.2472 30.706 59.2815C30.3635 59.2986 30.295 59.1787 30.295 58.8534C30.3121 55.0178 30.295 51.1822 30.295 47.3637C30.295 47.2609 30.295 47.1582 30.295 47.0041C30.0895 47.0897 30.1067 47.2781 30.0724 47.415C29.0449 50.3602 28.0175 53.3226 27.0072 56.2849C26.8873 56.6274 26.7332 56.7472 26.3736 56.7301C25.8256 56.6959 25.2605 56.6959 24.7125 56.7301C24.3871 56.7472 24.2501 56.6445 24.1474 56.3363C23.0514 53.1342 21.9384 49.9493 20.8253 46.7644C20.8082 46.7472 20.7739 46.7472 20.7568 46.7472Z" fill="#050606"/>
<path d="M116.276 54.1453C116.276 53.974 116.276 53.8199 116.276 53.6487C116.276 49.3507 116.276 45.0699 116.259 40.772C116.259 40.3096 116.396 40.2069 116.807 40.2411C117.252 40.2754 117.697 40.2925 118.143 40.2411C118.622 40.1898 118.691 40.3781 118.691 40.8233C118.673 45.4295 118.673 50.0357 118.673 54.6418C118.673 56.0459 118.673 57.4672 118.673 58.8713C118.673 59.1624 118.622 59.2822 118.297 59.2822C117.663 59.248 117.03 59.248 116.396 59.2822C116.071 59.2994 115.934 59.1795 115.797 58.9055C113.742 54.6589 111.67 50.4124 109.615 46.1829C109.478 45.909 109.341 45.635 109.135 45.361C109.135 45.5151 109.135 45.6521 109.135 45.8062C109.135 50.1213 109.135 54.4535 109.152 58.7685C109.152 59.2137 109.015 59.3165 108.604 59.2822C108.108 59.248 107.628 59.248 107.132 59.2822C106.823 59.2994 106.738 59.1966 106.738 58.8884C106.755 57.1418 106.738 55.4124 106.738 53.6658C106.738 49.3679 106.738 45.0528 106.721 40.7548C106.721 40.361 106.806 40.2411 107.2 40.2583C107.782 40.2925 108.365 40.2925 108.964 40.2583C109.289 40.2411 109.461 40.3439 109.615 40.6521C111.721 45.0357 113.862 49.4021 115.985 53.7685C116.053 53.9055 116.122 54.0425 116.19 54.1624C116.225 54.1624 116.242 54.1453 116.276 54.1453Z" fill="#0B0B0B"/>
<path d="M61.3404 59.2652C60.5356 59.2652 59.7821 59.2481 59.0286 59.2652C58.7375 59.2823 58.7375 59.0597 58.6861 58.9056C57.8128 56.4227 56.9566 53.9398 56.1175 51.457C55.9976 51.0974 55.8435 50.9775 55.4496 50.9775C54.3708 51.0118 53.292 50.9946 52.2131 50.9775C51.8707 50.9775 51.8022 51.0803 51.8022 51.4056C51.8193 53.8714 51.8022 56.3542 51.8193 58.82C51.8193 59.1796 51.7165 59.2823 51.374 59.2481C50.8432 59.2138 50.2952 59.2309 49.7644 59.2481C49.5075 59.2481 49.4219 59.1967 49.4219 58.9227C49.4219 52.8097 49.4219 46.6967 49.4219 40.5837C49.4219 40.3268 49.4732 40.2412 49.7472 40.2412C51.8022 40.2583 53.8571 40.2241 55.9291 40.2583C58.0354 40.2926 60.0218 41.9878 60.5698 44.1453C61.152 46.4741 60.3814 48.7344 58.4806 50.1042C58.258 50.2755 58.2923 50.3953 58.3608 50.6179C59.3026 53.3234 60.2273 56.0289 61.1692 58.7344C61.2205 58.9056 61.2719 59.0768 61.3404 59.2652ZM54.0626 42.8268C53.429 42.8268 52.7954 42.8268 52.1618 42.8268C51.922 42.8268 51.8022 42.8611 51.8022 43.1522C51.8193 44.8303 51.8193 46.5083 51.8022 48.1864C51.8022 48.4946 51.9049 48.546 52.1789 48.546C53.3262 48.5289 54.4907 48.546 55.638 48.546C57.1278 48.546 58.3436 47.2789 58.3608 45.7207C58.3779 44.1453 57.2134 42.8782 55.7065 42.844C55.1756 42.8097 54.6105 42.8268 54.0626 42.8268Z" fill="#050606"/>
<path d="M122.887 50.0004C122.887 51.1134 122.836 52.2264 122.904 53.3223C123.024 55.3771 124.856 56.9011 126.911 56.747C127.082 56.7299 127.202 56.6614 127.305 56.5415C128.144 55.6511 128.966 54.7607 129.822 53.8874C129.976 53.7333 130.028 53.562 130.028 53.3394C130.011 52.6888 130.011 52.0381 130.028 51.3874C130.045 51.0963 129.976 50.9936 129.668 51.0107C128.915 51.0278 128.144 51.0107 127.391 51.0278C127.099 51.0278 127.014 50.9593 127.014 50.6511C127.031 50.0689 127.031 49.4867 127.014 48.8874C126.997 48.6134 127.065 48.4936 127.373 48.5107C128.949 48.5278 130.507 48.5278 132.083 48.5107C132.357 48.5107 132.408 48.6134 132.408 48.8531C132.391 50.7196 132.391 52.586 132.408 54.4525C132.408 54.6579 132.322 54.812 132.202 54.949C130.918 56.3018 129.634 57.6545 128.35 59.0244C128.264 59.1271 128.178 59.2641 128.024 59.2641C126.843 59.247 125.644 59.384 124.514 58.9216C121.911 57.8429 120.592 55.8394 120.507 53.0826C120.421 50.634 120.318 48.1682 120.575 45.7196C120.9 42.5689 123.589 39.9833 126.98 40.2573C129.445 40.4627 131.637 42.4319 132.237 44.9662C132.322 45.36 132.357 45.771 132.425 46.1819C132.476 46.4901 132.391 46.6442 132.031 46.61C131.552 46.5757 131.072 46.5586 130.61 46.61C130.113 46.6785 130.011 46.4559 129.976 46.0278C129.856 44.8292 129.24 43.9216 128.23 43.3052C126.312 42.1408 123.812 43.1168 123.109 45.2572C122.938 45.7881 122.887 46.336 122.887 46.884C122.887 47.9114 122.887 48.9388 122.887 49.9662C122.87 50.0004 122.887 50.0004 122.887 50.0004Z" fill="#070707"/>
<path d="M48.2242 59.2645C47.4365 59.2645 46.6659 59.2474 45.9125 59.2645C45.6214 59.2817 45.6214 59.0762 45.57 58.9221C45.1419 57.4837 44.7138 56.0625 44.3199 54.6241C44.2343 54.3159 44.1144 54.2132 43.7719 54.2132C41.9739 54.2303 40.1587 54.2303 38.3606 54.2132C38.0182 54.2132 37.8983 54.3159 37.8127 54.6241C37.4017 56.0625 36.9564 57.4837 36.5455 58.9221C36.477 59.1789 36.3742 59.2817 36.1002 59.2645C35.5009 59.2474 34.9015 59.2303 34.3022 59.2645C33.9083 59.2817 33.9254 59.1447 34.0111 58.8365C34.7817 56.2851 35.518 53.7337 36.2715 51.1995C37.3161 47.7063 38.3435 44.196 39.371 40.7029C39.4737 40.3775 39.5936 40.2234 39.9703 40.2405C40.7067 40.2748 41.4601 40.2748 42.1965 40.2405C42.4705 40.2405 42.6075 40.309 42.6931 40.583C44.2343 45.8399 45.7926 51.0796 47.3509 56.3364C47.642 57.3125 47.916 58.2714 48.2242 59.2645ZM43.4123 51.6447C42.6246 49.0077 41.854 46.4049 41.0492 43.6823C40.2443 46.4049 39.4737 49.0077 38.686 51.6447C40.2957 51.6447 41.8198 51.6447 43.4123 51.6447Z" fill="#070707"/>
<path d="M75.091 40.2578C74.6115 41.6619 74.132 43.0318 73.6697 44.4016C73.0874 46.0626 72.5223 47.7236 71.923 49.3845C71.8202 49.6585 71.8374 49.8811 71.923 50.1551C72.9333 53.066 73.9437 55.977 74.954 58.8879C74.9882 59.0078 75.0225 59.1276 75.0739 59.2818C74.3033 59.2818 73.5498 59.2646 72.8135 59.2818C72.5223 59.2989 72.4881 59.1105 72.4196 58.9222C71.5463 56.4222 70.6729 53.9393 69.8338 51.4393C69.714 51.0968 69.577 51.0112 69.2345 51.0283C68.1728 51.0455 67.1111 51.0626 66.0494 51.0283C65.587 51.0112 65.5185 51.1653 65.5185 51.5934C65.5356 54.0078 65.5185 56.405 65.5356 58.8194C65.5356 59.1961 65.4843 59.3502 65.0561 59.316C64.5253 59.2646 63.9773 59.2989 63.4465 59.316C63.1896 59.3331 63.104 59.2475 63.1382 58.9907C63.1553 58.9222 63.1382 58.8708 63.1382 58.8023C63.1382 52.8092 63.1382 46.7989 63.1211 40.8058C63.1211 40.3777 63.2238 40.2578 63.6348 40.2921C64.1143 40.3263 64.5938 40.3263 65.0561 40.2921C65.4158 40.2749 65.5356 40.3606 65.5185 40.7544C65.5014 43.1859 65.5185 45.6345 65.5014 48.066C65.5014 48.4599 65.587 48.5797 65.998 48.5626C67.0939 48.5283 68.1899 48.5455 69.2687 48.5626C69.577 48.5626 69.6968 48.477 69.7996 48.1859C70.6558 45.6859 71.5291 43.203 72.3853 40.703C72.4881 40.3948 72.608 40.2921 72.9504 40.2921C73.6525 40.2921 74.3375 40.2578 75.091 40.2578Z" fill="#040404"/>
<path d="M76.8921 49.7784C76.8921 46.7475 76.8921 43.7338 76.8921 40.703C76.8921 40.3606 76.9606 40.2578 77.3202 40.2578C80.4197 40.2749 83.5192 40.2749 86.6359 40.2578C86.9612 40.2578 87.0811 40.3263 87.0468 40.6688C87.0126 41.2167 87.0126 41.7818 87.0468 42.3297C87.064 42.7064 86.9612 42.8434 86.5674 42.8263C84.2898 42.8092 82.0123 42.8263 79.7348 42.8092C79.3751 42.8092 79.2895 42.8948 79.2895 43.2544C79.3066 44.864 79.3066 46.4907 79.2895 48.1003C79.2895 48.477 79.3923 48.5455 79.7348 48.5284C81.6356 48.5112 83.5364 48.5283 85.4372 48.5112C85.8139 48.5112 85.8824 48.614 85.8653 48.9564C85.831 49.5044 85.831 50.0694 85.8653 50.6174C85.8824 50.9599 85.7625 51.0283 85.4372 51.0283C83.5364 51.0112 81.6356 51.0283 79.7348 51.0112C79.3409 51.0112 79.2724 51.1311 79.2724 51.4907C79.2895 53.0831 79.2895 54.6927 79.2724 56.2852C79.2724 56.6277 79.3409 56.7304 79.7005 56.7304C81.9952 56.7133 84.2898 56.7304 86.5845 56.7133C86.9441 56.7133 87.0468 56.7989 87.0297 57.1585C86.9955 57.7407 87.0126 58.3229 87.0297 58.9222C87.0468 59.2133 86.9612 59.2989 86.6701 59.2989C83.5364 59.2818 80.4026 59.2818 77.2689 59.2989C76.8921 59.2989 76.875 59.1619 76.875 58.8537C76.8921 55.8229 76.8921 52.792 76.8921 49.7784Z" fill="#040404"/>
<path d="M96.0011 51.0456C96.0011 53.6312 95.984 56.1997 96.0182 58.7853C96.0182 59.1962 95.9155 59.299 95.5216 59.2647C95.0421 59.2305 94.5626 59.2134 94.1003 59.2647C93.6379 59.3161 93.6037 59.1106 93.6037 58.7339C93.6208 53.6141 93.6037 48.5113 93.6208 43.3914C93.6208 42.9462 93.5523 42.775 93.0386 42.7921C91.7885 42.8435 90.5384 42.7921 89.2883 42.8093C88.8774 42.8264 88.7746 42.6894 88.8089 42.2956C88.8431 41.7647 88.8431 41.2168 88.8089 40.686C88.7917 40.3606 88.8602 40.2236 89.237 40.2236C92.953 40.2408 96.6861 40.2408 100.402 40.2236C100.727 40.2236 100.796 40.3092 100.779 40.6175C100.762 41.1997 100.745 41.7819 100.779 42.3812C100.796 42.7065 100.71 42.8093 100.368 42.8093C99.0835 42.7921 97.7992 42.8093 96.5148 42.7921C96.121 42.7921 95.984 42.8435 95.984 43.2887C96.0182 45.8914 96.0011 48.4771 96.0011 51.0456Z" fill="#070707"/>
<path d="M104.94 49.7783C104.94 52.7749 104.923 55.7544 104.957 58.7509C104.957 59.1961 104.82 59.2989 104.409 59.2646C103.93 59.2304 103.433 59.2304 102.936 59.2646C102.611 59.2818 102.543 59.179 102.543 58.8708C102.56 57.0728 102.543 55.2578 102.543 53.4598C102.543 49.2133 102.543 44.9838 102.525 40.7372C102.525 40.292 102.662 40.2064 103.056 40.2406C103.553 40.2749 104.032 40.2749 104.529 40.2406C104.871 40.2235 104.94 40.3263 104.94 40.6516C104.94 43.7167 104.94 46.7475 104.94 49.7783Z" fill="#010101"/>
<path d="M156.916 42.1578C156.916 39.9147 156.967 37.6715 157.173 35.4112C157.412 32.8941 158.371 30.8222 160.289 29.1955C160.735 28.8188 161.214 28.4421 160.495 27.8941C157.618 25.6681 156.967 22.5345 156.933 19.1612C156.899 16.353 156.813 13.5448 157.241 10.7366C157.875 6.52425 160.084 3.33932 163.766 1.45576C170.204 -1.81479 177.602 0.531101 180.89 7.70576C181.575 9.21261 181.815 10.8907 181.9 12.5345C182.071 15.7537 182.191 18.99 181.695 22.2092C181.352 24.4181 180.308 26.1647 178.681 27.5859C177.927 28.2537 177.91 28.6989 178.681 29.3153C181.198 31.3188 181.763 34.1612 181.9 37.1236C182.123 41.627 182.294 46.1475 181.438 50.5825C180.753 54.1612 178.612 56.9695 175.307 58.5619C171.266 60.514 167.036 60.5482 163.098 58.2708C159.707 56.3188 157.669 53.3393 157.207 49.3153C156.933 46.9181 156.933 44.538 156.916 42.1578ZM173.646 41.5585C173.646 39.6578 173.544 37.7571 173.681 35.8736C173.852 33.6475 171.454 31.5414 169.519 31.5243C167.242 31.5071 165.221 33.4763 165.221 35.8051C165.204 39.6407 165.204 43.4592 165.221 47.2948C165.238 49.7777 167.053 51.49 169.519 51.49C171.883 51.4729 173.629 49.7092 173.646 47.2606C173.663 45.3599 173.646 43.4592 173.646 41.5585ZM173.646 16.8838C173.629 15.3085 173.681 13.716 173.629 12.1407C173.544 9.77768 170.718 7.82562 168.475 8.49343C166.386 9.12699 165.221 10.6681 165.221 12.8427C165.221 15.5482 165.204 18.2537 165.221 20.9592C165.238 23.4592 167.122 25.4455 169.502 25.3599C171.78 25.2743 173.698 23.6304 173.663 20.9934C173.646 19.6236 173.646 18.2537 173.646 16.8838Z" fill="#F49A1F"/>
<path d="M135.663 15.0521C135.184 14.898 135.201 14.487 135.201 14.1103C135.201 11.9185 135.184 7.51782 135.184 7.51782C135.184 7.51782 143.506 0.634256 143.609 0.582886C145.749 0.617132 147.89 0.634256 150.03 0.668502C151.691 0.685625 151.726 0.719872 151.726 2.39795C151.726 14.5897 151.726 51.5589 151.726 57.8432C151.726 58.3911 151.811 58.9904 151.229 59.3671C149.26 59.3671 147.29 59.3671 145.321 59.3671C143.335 59.3671 143.54 59.5041 143.54 57.6377C143.54 42.1754 143.489 10.3432 143.472 9.88083C143.181 9.38426 142.718 9.88083 142.718 9.88083C142.136 10.3089 135.8 14.9664 135.663 15.0521Z" fill="#F49A1F"/>
</g>
<defs>
<clipPath id="clip0_822:36379">
<rect width="200" height="60" fill="white" transform="translate(0.25)"/>
</clipPath>
</defs>
</svg>
