<svg width="16" height="15" viewBox="0 0 16 15" fill="none" xmlns="http://www.w3.org/2000/svg">
<g clip-path="url(#clip0_324:32882)">
<path d="M14.9968 6.00748H4.12684L7.75684 1.64748C8.10684 1.22748 8.05684 0.597476 7.62684 0.237476C7.19684 -0.122524 6.57684 -0.0625237 6.21684 0.367476L1.21684 6.36748C1.20684 6.39748 1.19684 6.42748 1.17684 6.46748C1.13684 6.52748 1.10684 6.57748 1.07684 6.64748C1.05684 6.69748 1.03684 6.75748 1.02684 6.81748C1.01684 6.87748 1.00684 6.94748 1.00684 7.00748C1.00684 7.06748 1.01684 7.13748 1.02684 7.19748C1.03684 7.25748 1.05684 7.31748 1.07684 7.37748C1.10684 7.43748 1.13684 7.49748 1.17684 7.55748C1.19684 7.58748 1.20684 7.62748 1.22684 7.65748L6.22684 13.6575C6.42684 13.8875 6.70684 14.0075 6.99684 14.0075C7.22684 14.0075 7.44684 13.9275 7.63684 13.7775C8.05684 13.4275 8.11684 12.7975 7.76684 12.3675L4.12684 8.00748H14.9968C15.5468 8.00748 15.9968 7.55748 15.9968 7.00748C15.9968 6.45748 15.5468 6.00748 14.9968 6.00748Z" fill="#2F80ED"/>
</g>
<defs>
<clipPath id="clip0_324:32882">
<rect width="15" height="15" fill="white" transform="translate(0.996582)"/>
</clipPath>
</defs>
</svg>
