<svg width="16" height="15" viewBox="0 0 16 15" fill="none" xmlns="http://www.w3.org/2000/svg">
<g clip-path="url(#clip0_324:32891)">
<path d="M9.49887 1.00023V11.8702L13.8589 8.24023C14.2789 7.89023 14.9089 7.94023 15.2689 8.37023C15.6289 8.80023 15.5689 9.42023 15.1389 9.78023L9.13887 14.7802C9.10887 14.7902 9.07887 14.8002 9.03887 14.8202C8.97887 14.8602 8.92887 14.8902 8.85887 14.9202C8.80887 14.9402 8.74887 14.9602 8.68887 14.9702C8.62887 14.9802 8.55887 14.9902 8.49887 14.9902C8.43887 14.9902 8.36887 14.9802 8.30887 14.9702C8.24887 14.9602 8.18887 14.9402 8.12887 14.9202C8.06887 14.8902 8.00887 14.8602 7.94887 14.8202C7.91887 14.8002 7.87887 14.7902 7.84887 14.7702L1.84887 9.77023C1.61887 9.57023 1.49887 9.29023 1.49887 9.00023C1.49887 8.77023 1.57887 8.55023 1.72887 8.36023C2.07887 7.94023 2.70887 7.88023 3.13887 8.23023L7.49887 11.8702V1.00023C7.49887 0.450234 7.94887 0.000234604 8.49887 0.000234604C9.04887 0.000234604 9.49887 0.450234 9.49887 1.00023Z" fill="#2F80ED"/>
</g>
<defs>
<clipPath id="clip0_324:32891">
<rect width="15" height="15" fill="white" transform="translate(0.996582)"/>
</clipPath>
</defs>
</svg>
