<svg width="16" height="15" viewBox="0 0 16 15" fill="none" xmlns="http://www.w3.org/2000/svg">
<g clip-path="url(#clip0_324:32848)">
<path d="M2.00658 6.00015H12.8766L9.24658 1.64015C8.89658 1.22015 8.94658 0.590152 9.37658 0.230152C9.80658 -0.129848 10.4266 -0.0698479 10.7866 0.360152L15.7866 6.36015C15.7966 6.39015 15.8066 6.42015 15.8266 6.46015C15.8666 6.52015 15.8966 6.57015 15.9266 6.64015C15.9466 6.69015 15.9666 6.75015 15.9766 6.81015C15.9866 6.87015 15.9966 6.94015 15.9966 7.00015C15.9966 7.06015 15.9866 7.13015 15.9766 7.19015C15.9666 7.25015 15.9466 7.31015 15.9266 7.37015C15.8966 7.43015 15.8666 7.49015 15.8266 7.55015C15.8066 7.58015 15.7966 7.62015 15.7766 7.65015L10.7766 13.6502C10.5766 13.8802 10.2966 14.0002 10.0066 14.0002C9.77658 14.0002 9.55658 13.9202 9.36658 13.7702C8.94658 13.4202 8.88658 12.7902 9.23658 12.3602L12.8766 8.00015H2.00658C1.45658 8.00015 1.00658 7.55015 1.00658 7.00015C1.00658 6.45015 1.45658 6.00015 2.00658 6.00015Z" fill="#2F80ED"/>
</g>
<defs>
<clipPath id="clip0_324:32848">
<rect width="15" height="15" fill="white" transform="translate(0.996582)"/>
</clipPath>
</defs>
</svg>
