<svg width="16" height="15" viewBox="0 0 16 15" fill="none" xmlns="http://www.w3.org/2000/svg">
<path d="M10.9984 8C11.2284 8 11.4484 7.91998 11.6384 7.76995C12.0585 7.41986 12.1185 6.78972 11.7684 6.35962L6.76809 0.358217C6.41807 -0.0618808 5.78803 -0.121895 5.358 0.228187C4.92797 0.578268 4.87796 1.20842 5.22799 1.63852L10.2283 7.63992C10.4283 7.87997 10.7084 8 10.9984 8Z" fill="#2F80ED"/>
<path d="M5.99757 14C6.28746 14 6.56735 13.88 6.76727 13.6401L11.7653 7.64111C12.1151 7.22118 12.0652 6.59129 11.6353 6.23135C11.2155 5.88141 10.5858 5.9314 10.2259 6.36133L5.22788 12.3603C4.87802 12.7802 4.928 13.4101 5.35783 13.77C5.54775 13.92 5.76767 14 5.99757 14Z" fill="#2F80ED"/>
</svg>
