<svg width="16" height="15" viewBox="0 0 16 15" fill="none" xmlns="http://www.w3.org/2000/svg">
<path d="M5.99478 8C5.76477 8 5.54475 7.91998 5.35474 7.76995C4.93471 7.41986 4.87471 6.78972 5.22473 6.35962L10.2251 0.358217C10.5751 -0.0618808 11.2051 -0.121895 11.6352 0.228187C12.0652 0.578268 12.1152 1.20842 11.7652 1.63852L6.76484 7.63992C6.56482 7.87997 6.2848 8 5.99478 8Z" fill="#2F80ED"/>
<path d="M10.9956 14C10.7057 14 10.4258 13.88 10.2259 13.6401L5.22788 7.64111C4.87802 7.22118 4.928 6.59129 5.35783 6.23135C5.77766 5.88141 6.40741 5.9314 6.76727 6.36133L11.7653 12.3603C12.1151 12.7802 12.0652 13.4101 11.6353 13.77C11.4454 13.92 11.2255 14 10.9956 14Z" fill="#2F80ED"/>
</svg>
