<svg width="11" height="12" viewBox="0 0 11 12" fill="none" xmlns="http://www.w3.org/2000/svg">
<path fill-rule="evenodd" clip-rule="evenodd" d="M10.765 6.64718L7.81 10.63C7.48 11.07 6.85 11.17 6.41 10.84C6.15 10.64 6.01 10.34 6.01 10.04C6.01 9.83 6.07 9.62 6.21 9.44L8.01584 7H1C0.45 7 0 6.55 0 6C0 5.45 0.45 5 1 5H8.01569L6.21 2.5602C6.07 2.3802 6.01 2.1702 6.01 1.9602C6.01 1.6602 6.15 1.3602 6.41 1.1602C6.85 0.830204 7.48 0.930204 7.81 1.3702L10.765 5.35303C10.8114 5.40747 10.8512 5.46649 10.8842 5.52884C10.9634 5.67495 10.9991 5.83439 11 5.99401C11 5.99601 11 5.998 11 6C11 6.00207 11 6.00413 11 6.0062C11 6.0042 11 6.0022 11 6.0002M10.8842 6.47136C10.8512 6.53372 10.8114 6.59273 10.765 6.64718L10.8842 6.47136Z" fill="#47413B"/>
</svg>
