<svg width="10" height="10" viewBox="0 0 10 10" fill="none" xmlns="http://www.w3.org/2000/svg">
<path fill-rule="evenodd" clip-rule="evenodd" d="M6.99 1H8.5C8.78 1 9 1.22 9 1.5V9.5C9 9.78 8.78 10 8.5 10H0.5C0.22 10 0 9.78 0 9.5V1.5C0 1.22 0.22 1 0.5 1H1.99V0.5C1.99 0.22 2.21 0 2.49 0C2.77 0 2.99 0.22 2.99 0.5V1H3.99V0.5C3.99 0.22 4.21 0 4.49 0C4.77 0 4.99 0.22 4.99 0.5V1H5.99V0.5C5.99 0.22 6.21 0 6.49 0C6.77 0 6.99 0.22 6.99 0.5V1ZM1.98999 2.5C1.98999 2.22 2.20999 2 2.48999 2C2.76999 2 2.98999 2.22 2.98999 2.5C2.98999 2.78 2.76999 3 2.48999 3C2.20999 3 1.98999 2.78 1.98999 2.5ZM2.52 4C2.24 4 2 4.24 2 4.53C2 4.81 2.24 5.05 2.52 5.05H3V7.5C3 7.78 3.22 8 3.5 8C3.78 8 4 7.78 4 7.5V4.52V4.5C4 4.22 3.78 4 3.5 4L3.48494 4.00021L3.47 4H2.52ZM4.5 2C4.22 2 4 2.22 4 2.5C4 2.78 4.22 3 4.5 3C4.78 3 5 2.78 5 2.5C5 2.22 4.78 2 4.5 2ZM5.98999 2.5C5.98999 2.22 6.20999 2 6.48999 2C6.76999 2 6.98999 2.22 6.98999 2.5C6.98999 2.78 6.76999 3 6.48999 3C6.20999 3 5.98999 2.78 5.98999 2.5ZM5.52 4C5.24 4 5 4.24 5 4.53C5 4.81 5.24 5.05 5.52 5.05H6V7.5C6 7.78 6.22 8 6.5 8C6.78 8 7 7.78 7 7.5V4.52V4.5C7 4.22 6.78 4 6.5 4L6.48494 4.00021L6.47 4H5.52Z" fill="#A9A5A0"/>
</svg>
