<svg width="10" height="10" viewBox="0 0 10 10" fill="none" xmlns="http://www.w3.org/2000/svg">
<path fill-rule="evenodd" clip-rule="evenodd" d="M10 5.49C10 5.54 9.99 5.58 9.97 5.63V5.69C9.96 5.69 9.96 5.7 9.96 5.71C9.23 7.3 7.55 9 5 9C2.45 9 0.77 7.3 0.03 5.71V5.69C0.025 5.67 0.0225 5.6525 0.02 5.635C0.0175 5.6175 0.015 5.6 0.01 5.58C0.01 5.57101 0.00797959 5.56 0.00575508 5.54788C0.00303062 5.53303 0 5.51652 0 5.5C0 5.47 0.01 5.44 0.02 5.42C0.02 5.38 0.03 5.34 0.04 5.31V5.29C0.77 3.7 2.45 2 5 2C7.55 2 9.23 3.7 9.95 5.29V5.3C9.98 5.35 9.99 5.4 9.99 5.46C10 5.47 10 5.48 10 5.49ZM2 5C2 6.65 3.35 8 5 8C6.65 8 8 6.65 8 5C8 4.72 7.78 4.5 7.5 4.5C7.22 4.5 7 4.72 7 5C7 6.1 6.1 7 5 7C3.9 7 3 6.1 3 5C3 4.72 2.78 4.5 2.5 4.5C2.22 4.5 2 4.72 2 5Z" fill="#A9A5A0"/>
</svg>
