<svg width="15" height="15" viewBox="0 0 15 15" fill="none" xmlns="http://www.w3.org/2000/svg">
<path fill-rule="evenodd" clip-rule="evenodd" d="M6.85282 13.265L2.87 10.31C2.43 9.98 2.33 9.35 2.66 8.91C2.86 8.65 3.16 8.51 3.46 8.51C3.67 8.51 3.88 8.57 4.06 8.71L6.5 10.5158L6.5 3.5C6.5 2.95 6.95 2.5 7.5 2.5C8.05 2.5 8.5 2.95 8.5 3.5V10.5157L10.9398 8.71C11.1198 8.57 11.3298 8.51 11.5398 8.51C11.8398 8.51 12.1398 8.65 12.3398 8.91C12.6698 9.35 12.5698 9.98 12.1298 10.31L8.14697 13.265C8.09253 13.3114 8.03351 13.3512 7.97116 13.3842C7.82505 13.4634 7.66561 13.4991 7.50599 13.5C7.50399 13.5 7.502 13.5 7.5 13.5C7.49793 13.5 7.49587 13.5 7.4938 13.5C7.4958 13.5 7.4978 13.5 7.4998 13.5M7.02864 13.3842C6.96628 13.3512 6.90727 13.3114 6.85282 13.265L7.02864 13.3842Z" fill="#A9A5A0"/>
</svg>
