<svg width="80" height="80" viewBox="0 0 80 80" fill="none" xmlns="http://www.w3.org/2000/svg">
<path d="M26.4766 23.5278H22.7342L16.8286 51.3406H20.467L21.8062 44.3358H27.4718L28.7422 51.3406H32.4222L26.4766 23.5278ZM22.3166 41.555L24.6174 29.0222L26.9534 41.555H22.3166Z" fill="#2F80ED"/>
<path d="M43.5757 27.8159L35.6781 9.34229H33.0349V37.1551H36.3309V18.1663L44.3309 37.1551H46.8029V9.34229H43.5757V27.8159Z" fill="#2F80ED"/>
<path d="M49.5168 26.4126H54.2208V51.3406H58.1008V26.4126H62.6672V23.5278H49.5168V26.4126Z" fill="#2F80ED"/>
<path d="M20.8481 58.6257H23.6577V65.7521H25.6897V58.6257H28.5009V56.9697H20.8481V58.6257Z" fill="#2F80ED"/>
<path d="M31.6126 62.0881H35.6894V60.5073H31.6126V58.6001H36.2286V56.9697H29.5918V65.7521H36.3918V64.1217H31.6126V62.0881Z" fill="#2F80ED"/>
<path d="M40.7712 56.9697L36.856 65.7601H38.936L39.7136 63.8785H43.7904L44.5728 65.7601H46.7056L42.7776 56.9777L40.7712 56.9697ZM40.3696 62.3265L41.7616 58.9665L43.1552 62.3265H40.3696Z" fill="#2F80ED"/>
<path d="M55.8257 56.9697L52.5888 62.4273L49.3025 56.9697H47.6208V65.7521H49.528V60.5953L52.1009 64.8241H53.0161L55.6 60.4833L55.6128 65.7521H57.5201L57.4944 56.9697H55.8257Z" fill="#2F80ED"/>
<path d="M40 0C17.9088 0 0 17.9088 0 40C0 62.0912 17.9088 80 40 80C62.0912 80 80 62.0912 80 40C80 17.9088 62.0912 0 40 0ZM66.0208 66.0208C59.5674 72.4556 50.9494 76.2573 41.8461 76.685C32.7428 77.1127 23.8063 74.1357 16.778 68.3343C9.74973 62.5329 5.13315 54.3225 3.82785 45.3031C2.52255 36.2837 4.62204 27.1014 9.71723 19.5455C14.8124 11.9895 22.5383 6.60121 31.3893 4.43052C40.2404 2.25983 49.5826 3.46226 57.5955 7.8035C65.6084 12.1447 71.718 19.3138 74.7338 27.9137C77.7496 36.5136 77.4555 45.9283 73.9088 54.3232C72.0621 58.6966 69.3831 62.6694 66.0208 66.0208Z" fill="#2F80ED"/>
</svg>
