<svg width="15" height="15" viewBox="0 0 15 15" fill="none" xmlns="http://www.w3.org/2000/svg">
<path fill-rule="evenodd" clip-rule="evenodd" d="M4.21551 10.0796C3.69068 9.27967 3.20311 8.42487 2.83928 7.57674C2.61058 7.04432 2.43877 6.50012 2.27247 5.95503C2.03819 5.18681 1.96647 4.20198 2.01378 3.51709C2.07139 2.68406 2.35149 2.04714 2.74978 1.53776C2.9913 1.22882 3.4631 0.770734 3.9208 0.45404C4.28688 0.201024 4.62671 0.0571234 4.96281 0.0138016C5.2928 -0.0280739 5.6255 0.0262196 5.91471 0.164722C6.44343 0.418233 6.8385 0.819842 7.17192 1.24075C7.49323 1.64564 7.75492 2.16035 7.81193 2.68275C7.87681 3.27578 7.74702 3.88299 7.31433 4.43369C7.14073 4.6539 6.89802 4.85749 6.63181 5.05999C6.28351 5.32429 5.6732 5.64882 5.60049 6.09512C5.50281 6.70113 5.98901 7.49663 6.64292 8.49515C6.65273 8.51017 6.66211 8.52457 6.6721 8.53977C7.32612 9.53769 7.86121 10.3012 8.45343 10.4503C8.89013 10.5602 9.42844 10.1251 9.80803 9.90819C10.0984 9.74259 10.3801 9.59918 10.6502 9.52619C11.3247 9.34497 11.931 9.46516 12.4476 9.75988C12.9027 10.0191 13.2692 10.4643 13.5125 10.9205C13.7653 11.3947 13.976 11.918 13.9988 12.5063C14.0112 12.828 13.9295 13.1564 13.7599 13.4442C13.5876 13.7373 13.3218 13.9942 12.9457 14.2318C12.475 14.5291 11.8697 14.7831 11.4918 14.884C10.8685 15.0502 10.1755 15.0564 9.39154 14.7801C8.74652 14.553 7.87472 14.0971 7.26523 13.5771C6.83261 13.2081 6.40293 12.8342 6.00682 12.4126C5.37531 11.7417 4.7867 10.9531 4.26339 10.1527C4.24719 10.1279 4.23171 10.1044 4.21551 10.0796Z" fill="#2F80ED"/>
</svg>
