<svg width="16" height="15" viewBox="0 0 16 15" fill="none" xmlns="http://www.w3.org/2000/svg">
<path fill-rule="evenodd" clip-rule="evenodd" d="M7.49658 14C7.49658 14.5523 7.9443 15 8.49658 15C9.04887 15 9.49658 14.5523 9.49658 14V8.5H14.9966C15.5489 8.5 15.9966 8.05229 15.9966 7.5C15.9966 6.94772 15.5489 6.5 14.9966 6.5H9.49658V1C9.49658 0.447715 9.04887 0 8.49658 0C7.9443 0 7.49658 0.447715 7.49658 1V6.5H1.99658C1.4443 6.5 0.996582 6.94772 0.996582 7.5C0.996582 8.05229 1.4443 8.5 1.99658 8.5H7.49658V14Z" fill="#2F80ED"/>
</svg>
