<svg width="16" height="15" viewBox="0 0 16 15" fill="none" xmlns="http://www.w3.org/2000/svg">
<path fill-rule="evenodd" clip-rule="evenodd" d="M7.8494 1.735L3.86658 4.69C3.42658 5.02 3.32658 5.65 3.65658 6.09C3.85658 6.35 4.15658 6.49 4.45658 6.49C4.66658 6.49 4.87658 6.43 5.05658 6.29L7.49658 4.48416V11.5C7.49658 12.05 7.94658 12.5 8.49658 12.5C9.04658 12.5 9.49658 12.05 9.49658 11.5V4.48431L11.9364 6.29C12.1164 6.43 12.3264 6.49 12.5364 6.49C12.8364 6.49 13.1364 6.35 13.3364 6.09C13.6664 5.65 13.5664 5.02 13.1264 4.69L9.14356 1.735C9.08911 1.6886 9.03009 1.64879 8.96774 1.61583C8.82164 1.53659 8.66219 1.50092 8.50257 1.50002C8.50058 1.50001 8.49858 1.5 8.49658 1.5C8.49452 1.5 8.49245 1.50001 8.49039 1.50002C8.49238 1.50001 8.49438 1.5 8.49638 1.5M8.02522 1.61583C7.96286 1.64879 7.90385 1.6886 7.8494 1.735L8.02522 1.61583Z" fill="#2F80ED"/>
</svg>
