<svg width="16" height="15" viewBox="0 0 16 15" fill="none" xmlns="http://www.w3.org/2000/svg">
<path fill-rule="evenodd" clip-rule="evenodd" d="M13.7616 7.64718L10.8066 11.63C10.4766 12.07 9.84658 12.17 9.40658 11.84C9.14658 11.64 9.00658 11.34 9.00658 11.04C9.00658 10.83 9.06658 10.62 9.20658 10.44L11.0124 8H3.99658C3.44658 8 2.99658 7.55 2.99658 7C2.99658 6.45 3.44658 6 3.99658 6H11.0123L9.20658 3.5602C9.06658 3.3802 9.00658 3.1702 9.00658 2.9602C9.00658 2.6602 9.14658 2.3602 9.40658 2.1602C9.84658 1.8302 10.4766 1.9302 10.8066 2.3702L13.7616 6.35303C13.808 6.40747 13.8478 6.46649 13.8808 6.52884C13.96 6.67495 13.9957 6.83439 13.9966 6.99401C13.9966 6.99601 13.9966 6.998 13.9966 7C13.9966 7.00207 13.9966 7.00413 13.9966 7.0062C13.9966 7.0042 13.9966 7.0022 13.9966 7.0002M13.8808 7.47136C13.8478 7.53372 13.808 7.59273 13.7616 7.64718L13.8808 7.47136Z" fill="#2F80ED"/>
</svg>
