<svg id="Layer_1" data-name="Layer 1" xmlns="http://www.w3.org/2000/svg" viewBox="0 0 500 500"><title>basic blue flat</title><path d="M250,0C111.93,0,0,111.93,0,250S111.93,500,250,500,500,388.07,500,250,388.07,0,250,0ZM174.61,373H156.17v46.76H142.83V373H124.39V362.13h50.22Zm-6.74-93.77H130.69l-8.79,46H98l38.76-182.52h24.56l39,182.52H176.21ZM226.4,419.76H181.78V362.13h43.55v10.7H195v12.52h26.76v10.37H195v13.34H226.4Zm53.68,0L275,407.41H248.22l-5.1,12.35H229.45l25.69-57.63h13.17l25.77,57.63ZM294.73,232.1H278.51L226,107.49V232.1H204.37V49.58h17.35l51.83,121.23V49.58h21.18Zm57.81,187.66-.08-34.58-17,28.49h-6l-16.87-27.75v33.84H300.09V362.13h11L332.7,398l21.24-35.82h10.95l.16,57.63ZM398.83,161.6h-30V325.19H343.4V161.6H312.53V142.67h86.3Z" fill="#15c"/><polygon points="134.07 260.97 164.49 260.97 149.17 178.73 134.07 260.97" fill="#15c"/><polygon points="252.5 397.29 270.78 397.29 261.64 375.22 252.5 397.29" fill="#15c"/></svg>