<svg id="Layer_1" data-name="Layer 1" xmlns="http://www.w3.org/2000/svg" viewBox="0 0 200 200"><title>smaller blue flat</title><polygon points="103.79 158.66 108.24 158.66 106.02 152.91 103.79 158.66" fill="#15c"/><polygon points="58.43 75.11 53.51 105.53 63.35 105.53 58.43 75.11" fill="#15c"/><path d="M100,0A100,100,0,1,0,200,100,100,100,0,0,0,100,0ZM81.42,21.24h9.22l17.62,41.33V21.24h10.91V93.7h-8.76L92.69,50.41V93.7H81.42ZM36.78,130.66,51.28,58.2H65.41L79.9,130.66H67.65l-2.87-16.72H52.17l-3,16.72Zm34,20.65h-6.7v16.9H56.36v-16.9h-6.7v-6H70.78Zm21,16.9h-19V145.33h18.6v5.82h-11v2.68H90v5.55H80.36v3H91.8Zm20.1,0-1.54-4h-8.69l-1.54,4H92.29l10-22.88h7.58l10,22.88Zm29.65,0-.07-10.43-5,8.37h-3.4l-5-8v10.07h-7V145.33h6.34l7.45,12.19,7.26-12.19h6.34l.07,22.88ZM163.81,68H152.45v62.71H139.21V68H127.67V58.2h36.14Z" fill="#15c"/></svg>