<svg width="31" height="30" viewBox="0 0 31 30" fill="none" xmlns="http://www.w3.org/2000/svg">
<path d="M6.66602 12H24.666V16H6.66602C5.56602 16 4.66602 15.1 4.66602 14C4.66602 12.9 5.56602 12 6.66602 12Z" fill="#E3F0FF"/>
<path d="M24.666 16.0002C25.086 16.0002 25.506 15.8802 25.866 15.6002C26.386 15.2202 26.666 14.6202 26.666 14.0002C26.666 13.5802 26.546 13.1602 26.266 12.8002L20.286 4.74016C19.626 3.86016 18.366 3.66016 17.486 4.32016C16.966 4.72016 16.686 5.32016 16.686 5.92016C16.686 6.34016 16.806 6.76016 17.086 7.12016L23.066 15.2002C23.446 15.7202 24.046 16.0002 24.666 16.0002Z" fill="#E3F0FF"/>
<path d="M24.666 12C25.086 12 25.506 12.12 25.866 12.4C26.386 12.78 26.666 13.38 26.666 14C26.666 14.42 26.546 14.84 26.266 15.2L20.286 23.26C19.626 24.14 18.366 24.34 17.486 23.68C16.966 23.28 16.686 22.68 16.686 22.08C16.686 21.66 16.806 21.24 17.086 20.88L23.066 12.8C23.446 12.28 24.046 12 24.666 12Z" fill="#E3F0FF"/>
</svg>
