<svg width="16" height="15" viewBox="0 0 16 15" fill="none" xmlns="http://www.w3.org/2000/svg">
<g clip-path="url(#clip0_324:32925)">
<path d="M9.49887 13.99V3.12L13.8589 6.75C14.2789 7.1 14.9089 7.05 15.2689 6.62C15.6289 6.19 15.5689 5.57 15.1389 5.21L9.13887 0.21C9.10887 0.2 9.07887 0.19 9.03887 0.17C8.97887 0.13 8.92887 0.1 8.85887 0.07C8.80887 0.05 8.74887 0.03 8.68887 0.02C8.62887 0.01 8.55887 0 8.49887 0C8.43887 0 8.36887 0.01 8.30887 0.02C8.24887 0.03 8.18887 0.05 8.12887 0.07C8.06887 0.1 8.00887 0.13 7.94887 0.17C7.91887 0.19 7.87887 0.2 7.84887 0.22L1.84887 5.22C1.61887 5.42 1.49887 5.7 1.49887 5.99C1.49887 6.22 1.57887 6.44 1.72887 6.63C2.07887 7.05 2.70887 7.11 3.13887 6.76L7.49887 3.12V13.99C7.49887 14.54 7.94887 14.99 8.49887 14.99C9.04887 14.99 9.49887 14.54 9.49887 13.99Z" fill="#2F80ED"/>
</g>
<defs>
<clipPath id="clip0_324:32925">
<rect width="15" height="15" fill="white" transform="translate(0.996582)"/>
</clipPath>
</defs>
</svg>
