<svg width="15" height="15" viewBox="0 0 15 15" fill="none" xmlns="http://www.w3.org/2000/svg">
<path d="M13.9983 14.9983C14.2383 14.9983 14.4883 14.9083 14.6783 14.7283C15.0783 14.3483 15.1083 13.7183 14.7283 13.3183L1.72827 0.318269C1.34827 -0.0817315 0.718269 -0.111731 0.318269 0.268269C-0.0817315 0.648269 -0.111731 1.27827 0.268269 1.67827L13.2683 14.6783C13.4683 14.8883 13.7283 14.9983 13.9983 14.9983Z" fill="#2F80ED"/>
<path d="M0.998269 14.9983C0.758269 14.9983 0.508269 14.9083 0.318269 14.7283C-0.0817315 14.3483 -0.111731 13.7183 0.268269 13.3183L13.2683 0.318269C13.6483 -0.0817315 14.2783 -0.111731 14.6783 0.268269C15.0783 0.648269 15.1083 1.27827 14.7283 1.67827L1.72827 14.6783C1.52827 14.8883 1.26827 14.9983 0.998269 14.9983Z" fill="#2F80ED"/>
</svg>
