<svg width="16" height="15" viewBox="0 0 16 15" fill="none" xmlns="http://www.w3.org/2000/svg">
<path d="M1.99725 0C2.54762 0 2.99792 0.45 2.99792 1V8H12.5943L9.23207 4.64C8.88184 4.22 8.93187 3.59 9.36216 3.23C9.79245 2.87 10.4129 2.93 10.7731 3.36L15.7764 8.36C15.7964 8.39 15.8065 8.42 15.8265 8.46C15.8665 8.52 15.8965 8.57 15.9265 8.64C15.9465 8.69 15.9666 8.75 15.9766 8.81C15.9866 8.87 15.9966 8.94 15.9966 9C15.9966 9.06 15.9866 9.13 15.9766 9.19C15.9666 9.25 15.9465 9.31 15.9265 9.37C15.8965 9.43 15.8665 9.49 15.8265 9.55C15.8065 9.58 15.7964 9.62 15.7764 9.65L10.7731 14.65C10.573 14.88 10.2928 15 10.0026 15C9.77243 15 9.55229 14.92 9.36216 14.77C8.94188 14.42 8.88184 13.79 9.23207 13.36L12.5943 10H1.99725C1.44688 10 0.996582 9.55 0.996582 9V1C0.996582 0.45 1.44688 0 1.99725 0Z" fill="#2F80ED"/>
</svg>
