<svg width="5" height="6" viewBox="0 0 5 6" fill="none" xmlns="http://www.w3.org/2000/svg">
<path d="M3.33328 3.16667C3.40995 3.16667 3.48329 3.13999 3.54663 3.08998C3.68664 2.97329 3.70664 2.76324 3.58997 2.61987L1.92319 0.619406C1.80651 0.479373 1.5965 0.459368 1.45315 0.576062C1.30981 0.692756 1.29314 0.902805 1.40982 1.04617L3.0766 3.04664C3.14327 3.12666 3.23661 3.16667 3.33328 3.16667Z" fill="#A9A5A0"/>
<path d="M1.66635 5.16667C1.76297 5.16667 1.85627 5.12667 1.92291 5.04669L3.58892 3.04703C3.70554 2.90706 3.68888 2.6971 3.5456 2.57712C3.40566 2.46047 3.19574 2.47713 3.07579 2.62044L1.40978 4.62009C1.29316 4.76007 1.30982 4.97003 1.4531 5.09001C1.51641 5.14 1.58971 5.16667 1.66635 5.16667Z" fill="#A9A5A0"/>
</svg>
