<svg width="15" height="16" viewBox="0 0 15 16" fill="none" xmlns="http://www.w3.org/2000/svg">
<path d="M1.00067 0.5C1.55103 0.5 2.00133 0.95 2.00133 1.5V8.5H11.5977L8.23549 5.14C7.88526 4.72 7.93529 4.09 8.36558 3.73C8.79586 3.37 9.41628 3.43 9.77652 3.86L14.7799 8.86C14.7999 8.89 14.8099 8.92 14.8299 8.96C14.8699 9.02 14.8999 9.07 14.93 9.14C14.95 9.19 14.97 9.25 14.98 9.31C14.99 9.37 15 9.44 15 9.5C15 9.56 14.99 9.63 14.98 9.69C14.97 9.75 14.95 9.81 14.93 9.87C14.8999 9.93 14.8699 9.99 14.8299 10.05C14.8099 10.08 14.7999 10.12 14.7799 10.15L9.77652 15.15C9.57638 15.38 9.2962 15.5 9.006 15.5C8.77585 15.5 8.5557 15.42 8.36558 15.27C7.9453 14.92 7.88526 14.29 8.23549 13.86L11.5977 10.5H1.00067C0.4503 10.5 0 10.05 0 9.5V1.5C0 0.95 0.4503 0.5 1.00067 0.5Z" fill="#A9A5A0"/>
</svg>
