<svg width="15" height="15" viewBox="0 0 15 15" fill="none" xmlns="http://www.w3.org/2000/svg">
<path d="M1.00067 0C1.55103 0 2.00133 0.45 2.00133 1V8H11.5977L8.23549 4.64C7.88526 4.22 7.93529 3.59 8.36558 3.23C8.79586 2.87 9.41628 2.93 9.77652 3.36L14.7799 8.36C14.7999 8.39 14.8099 8.42 14.8299 8.46C14.8699 8.52 14.8999 8.57 14.93 8.64C14.95 8.69 14.97 8.75 14.98 8.81C14.99 8.87 15 8.94 15 9C15 9.06 14.99 9.13 14.98 9.19C14.97 9.25 14.95 9.31 14.93 9.37C14.8999 9.43 14.8699 9.49 14.8299 9.55C14.8099 9.58 14.7999 9.62 14.7799 9.65L9.77652 14.65C9.57638 14.88 9.2962 15 9.006 15C8.77585 15 8.5557 14.92 8.36558 14.77C7.9453 14.42 7.88526 13.79 8.23549 13.36L11.5977 10H1.00067C0.4503 10 0 9.55 0 9V1C0 0.45 0.4503 0 1.00067 0Z" fill="#A9A5A0"/>
</svg>
