<svg width="40" height="40" viewBox="0 0 40 40" fill="none" xmlns="http://www.w3.org/2000/svg">
<path d="M20 0C8.9544 0 0 8.9544 0 20C0 31.0456 8.9544 40 20 40C31.0456 40 40 31.0456 40 20C40 8.9544 31.0456 0 20 0ZM13.9688 29.84H12.4936V33.5808H11.4264V29.84H9.9512V28.9704H13.9688V29.84ZM13.4296 22.3384H10.4552L9.752 26.0184H7.84L10.9408 11.4168H12.9056L16.0256 26.0184H14.0968L13.4296 22.3384ZM18.112 33.5808H14.5424V28.9704H18.0264V29.8264H15.6V30.828H17.7408V31.6576H15.6V32.7248H18.112V33.5808ZM22.4064 33.5808L22 32.5928H19.8576L19.4496 33.5808H18.356L20.4112 28.9704H21.4648L23.5264 33.5808H22.4064ZM23.5784 18.568H22.2808L18.08 8.5992V18.568H16.3496V3.9664H17.7376L21.884 13.6648V3.9664H23.5784V18.568ZM28.2032 33.5808L28.1968 30.8144L26.8368 33.0936H26.3568L25.0072 30.8736V33.5808H24.0072V28.9704H24.8872L26.616 31.84L28.3152 28.9744H29.1912L29.204 33.5848L28.2032 33.5808ZM31.9064 12.928H29.5064V26.0152H27.472V12.928H25.0024V11.4136H31.9064V12.928Z" fill="#2F80ED"/>
<path d="M10.7256 20.8775H13.1592L11.9336 14.2983L10.7256 20.8775Z" fill="#2F80ED"/>
<path d="M20.2 31.7832H21.6623L20.9312 30.0176L20.2 31.7832Z" fill="#2F80ED"/>
</svg>
