<svg width="10" height="10" viewBox="0 0 10 10" fill="none" xmlns="http://www.w3.org/2000/svg">
<path d="M9.88 4.81C9.9 4.79 9.92 4.76 9.94 4.73C9.95 4.7 9.97 4.67 9.98 4.64C9.99 4.61 10 4.57 10 4.54C9.99 4.53 10 4.52 10 4.5C10 4.48 9.99 4.47 9.99 4.46C9.99 4.43 9.98 4.39 9.97 4.36C9.96 4.32 9.95 4.29 9.93 4.26C9.93 4.25 9.92 4.24 9.92 4.22C9.91 4.21 9.89 4.2 9.88 4.19C9.86 4.16 9.84 4.14 9.81 4.12C9.79 4.1 9.76 4.08 9.73 4.06C9.71 4.05 9.68 4.04 9.65 4.03C9.62 4.02 9.58 4.01 9.55 4.01C9.53 4.01 9.52 4 9.5 4H6.47L5.47 1.32C5.47 1.32 5.47 1.31 5.46 1.31C5.46 1.3 5.46 1.3 5.45 1.29C5.44 1.27 5.42 1.25 5.4 1.22C5.39 1.2 5.38 1.17 5.36 1.15L5.35 1.14C5.33 1.12 5.3 1.11 5.28 1.1C5.28 1.1 5.27 1.1 5.27 1.09C5.25 1.08 5.23 1.06 5.2 1.04C5.19 1.04 5.19 1.04 5.18 1.03C5.18 1.03 5.17 1.03 5.17 1.02C5.15 1.02 5.12 1.02 5.1 1.02C5.07 1.01 5.04 1 5.01 1H5H4.99C4.96 1 4.93 1.01 4.9 1.02C4.88 1.03 4.85 1.02 4.83 1.03C4.83 1.03 4.82 1.03 4.82 1.04C4.81 1.04 4.81 1.04 4.8 1.05C4.77 1.06 4.75 1.08 4.72 1.1C4.7 1.11 4.67 1.12 4.65 1.14L4.64 1.15C4.62 1.17 4.61 1.2 4.6 1.22C4.58 1.25 4.56 1.27 4.54 1.3C4.54 1.31 4.54 1.31 4.53 1.32C4.53 1.32 4.53 1.33 4.52 1.33L3.53 4H0.5C0.48 4 0.47 4.01 0.45 4.01C0.41 4.01 0.38 4.02 0.35 4.03C0.34 4.03 0.32 4.03 0.3 4.04C0.29 4.05 0.28 4.06 0.27 4.06C0.24 4.08 0.21 4.1 0.19 4.12C0.16 4.14 0.14 4.16 0.12 4.19C0.11 4.2 0.09 4.21 0.08 4.22C0.08 4.24 0.07 4.25 0.07 4.26C0.06 4.28 0.05 4.29 0.04 4.31C0.03 4.32 0.03 4.34 0.03 4.36C0.02 4.39 0.01 4.42 0.01 4.46C0.01 4.47 0 4.48 0 4.5C0 4.52 0.01 4.53 0.01 4.55C0.01 4.58 0.02 4.62 0.03 4.65C0.04 4.68 0.05 4.71 0.07 4.74C0.08 4.76 0.1 4.79 0.12 4.81C0.14 4.84 0.17 4.86 0.19 4.88C0.2 4.89 0.21 4.91 0.22 4.92L2.59 6.5L1.53 9.32C1.53 9.33 1.53 9.35 1.52 9.36C1.52 9.39 1.51 9.42 1.51 9.45C1.51 9.47 1.5 9.48 1.5 9.5V9.51C1.5 9.53 1.51 9.54 1.51 9.56C1.51 9.59 1.52 9.62 1.53 9.65C1.53 9.66 1.54 9.68 1.54 9.7C1.55 9.71 1.56 9.73 1.57 9.74C1.58 9.75 1.58 9.77 1.59 9.78C1.59 9.79 1.6 9.79 1.61 9.8C1.62 9.82 1.63 9.84 1.65 9.85C1.67 9.88 1.7 9.89 1.72 9.9L1.73 9.91C1.75 9.92 1.76 9.94 1.78 9.94C1.79 9.94 1.8 9.95 1.81 9.96C1.81 9.96 1.82 9.96 1.82 9.97C1.88 9.99 1.94 10 2 10C2.09 10 2.17 9.97 2.25 9.93C2.26 9.92 2.27 9.93 2.28 9.92L5 8.1L7.72 9.91C7.73 9.92 7.74 9.91 7.75 9.92C7.83 9.97 7.91 10 8 10C8.06 10 8.12 9.99 8.18 9.97C8.18 9.97 8.19 9.97 8.19 9.96C8.2 9.96 8.21 9.95 8.22 9.94C8.24 9.93 8.25 9.92 8.27 9.91L8.28 9.9C8.3 9.89 8.33 9.88 8.35 9.86C8.36 9.84 8.37 9.82 8.39 9.8C8.4 9.79 8.41 9.79 8.42 9.78C8.43 9.77 8.43 9.76 8.44 9.74C8.44 9.73 8.45 9.72 8.46 9.7C8.47 9.68 8.47 9.66 8.47 9.64C8.48 9.61 8.49 9.58 8.49 9.55C8.49 9.53 8.5 9.52 8.5 9.5V9.49C8.5 9.47 8.49 9.46 8.49 9.44C8.49 9.41 8.48 9.38 8.47 9.35C8.47 9.34 8.47 9.32 8.46 9.31L7.41 6.5L9.78 4.92C9.79 4.91 9.8 4.89 9.81 4.88C9.84 4.86 9.86 4.84 9.88 4.81Z" fill="#A9A5A0"/>
</svg>
