<svg width="16" height="15" viewBox="0 0 16 15" fill="none" xmlns="http://www.w3.org/2000/svg">
<path fill-rule="evenodd" clip-rule="evenodd" d="M3.23159 7.35282L6.18658 3.37C6.51658 2.93 7.14658 2.83 7.58658 3.16C7.84658 3.36 7.98658 3.66 7.98658 3.96C7.98658 4.17 7.92658 4.38 7.78658 4.56L5.98074 7L12.9966 7C13.5466 7 13.9966 7.45 13.9966 8C13.9966 8.55 13.5466 9 12.9966 9H5.98089L7.78658 11.4398C7.92658 11.6198 7.98658 11.8298 7.98658 12.0398C7.98658 12.3398 7.84658 12.6398 7.58658 12.8398C7.14658 13.1698 6.51658 13.0698 6.18658 12.6298L3.23159 8.64697C3.18518 8.59253 3.14537 8.53351 3.11241 8.47116C3.03317 8.32505 2.9975 8.16561 2.9966 8.00599C2.99659 8.00399 2.99658 8.002 2.99658 8C2.99658 7.99793 2.99659 7.99587 2.9966 7.9938C2.99659 7.9958 2.99658 7.9978 2.99658 7.9998M3.11241 7.52864C3.14537 7.46628 3.18518 7.40727 3.23159 7.35282L3.11241 7.52864Z" fill="#2F80ED"/>
</svg>
