<svg width="16" height="15" viewBox="0 0 16 15" fill="none" xmlns="http://www.w3.org/2000/svg">
<g clip-path="url(#clip0_324:32982)">
<path d="M9.99458 9.01727C10.205 9.01727 10.4154 8.95737 10.5858 8.81761C10.8563 8.62793 10.9966 8.32844 10.9966 8.01897C10.9966 7.80933 10.9365 7.59969 10.7962 7.41999L7.80019 3.39686C7.46953 2.95761 6.83826 2.85778 6.39738 3.18722C6.13686 3.38687 5.99658 3.68636 5.99658 3.98585C5.99658 4.1955 6.0567 4.40514 6.19698 4.58483L9.19297 8.61795C9.38336 8.87751 9.68396 9.01727 9.99458 9.01727Z" fill="#fff"/>
<path d="M9.99458 7.11035C10.205 7.11035 10.4154 7.17025 10.5858 7.30003C10.8563 7.4897 10.9966 7.78919 10.9966 8.0787C10.9966 8.28834 10.9365 8.488 10.7962 8.66769L7.80019 12.601C7.46953 13.0303 6.83826 13.1201 6.39738 12.8006C6.13686 12.611 5.99658 12.3115 5.99658 12.012C5.99658 11.8123 6.0567 11.6027 6.19698 11.433L9.19297 7.49969C9.38336 7.24013 9.68396 7.11035 9.99458 7.11035Z" fill="#fff"/>
</g>
<defs>
<clipPath id="clip0_324:32982">
<rect width="15" height="15" fill="white" transform="translate(0.996582)"/>
</clipPath>
</defs>
</svg>
