<svg width="16" height="15" viewBox="0 0 16 15" fill="none" xmlns="http://www.w3.org/2000/svg">
<g clip-path="url(#clip0_324:32965)">
<path d="M6.99859 9.01727C6.78817 9.01727 6.57774 8.95737 6.4074 8.81761C6.13686 8.62793 5.99658 8.32844 5.99658 8.01897C5.99658 7.80933 6.0567 7.59969 6.19698 7.41999L9.19298 3.39686C9.52364 2.95761 10.1549 2.85778 10.5958 3.18722C10.8563 3.38687 10.9966 3.68636 10.9966 3.98585C10.9966 4.1955 10.9365 4.40514 10.7962 4.58483L7.80019 8.61795C7.60981 8.87751 7.30921 9.01727 6.99859 9.01727Z" fill="#fff"/>
<path d="M6.99859 7.11035C6.78817 7.11035 6.57774 7.17025 6.4074 7.30003C6.13686 7.4897 5.99658 7.78919 5.99658 8.0787C5.99658 8.28834 6.0567 8.488 6.19698 8.66769L9.19298 12.601C9.52364 13.0303 10.1549 13.1201 10.5958 12.8006C10.8563 12.611 10.9966 12.3115 10.9966 12.012C10.9966 11.8123 10.9365 11.6027 10.7962 11.433L7.80019 7.49969C7.60981 7.24013 7.30921 7.11035 6.99859 7.11035Z" fill="#fff"/>
</g>
<defs>
<clipPath id="clip0_324:32965">
<rect width="15" height="15" fill="white" transform="translate(0.996582)"/>
</clipPath>
</defs>
</svg>
