<svg width="95" height="15" viewBox="0 0 95 15" fill="none" xmlns="http://www.w3.org/2000/svg">
<path d="M3.81541 14.8881C3.72961 14.958 3.61958 15 3.5002 15C3.2239 15 3.0002 14.7762 3.0002 14.4999C3.0002 14.4591 3.00511 14.4194 3.0141 14.3816L4.00019 10.0001L0.188983 6.89149C0.0740835 6.80001 0 6.65869 0 6.4999C0 6.22371 0.223697 5.99991 0.499993 5.99991H5.49989L7.02269 1.35041C7.08651 1.14743 7.27592 1 7.5 1C7.72408 1 7.91349 1.14743 7.97731 1.35041L9.50011 5.99991H14.5C14.7763 5.99991 15 6.22371 15 6.4999C15 6.65869 14.9259 6.80001 14.811 6.89149L10.9998 10.0001L11.9859 14.3816C11.9949 14.4194 11.9998 14.4591 11.9998 14.4999C11.9998 14.7762 11.7761 15 11.4998 15C11.3804 15 11.2704 14.958 11.1846 14.8881L7.5 11.9998L3.81541 14.8881Z" fill="#2F80ED"/>
<path d="M23.8154 14.8881C23.7296 14.958 23.6196 15 23.5002 15C23.2239 15 23.0002 14.7762 23.0002 14.4999C23.0002 14.4591 23.0051 14.4194 23.0141 14.3816L24.0002 10.0001L20.189 6.89149C20.0741 6.80001 20 6.65869 20 6.4999C20 6.22371 20.2237 5.99991 20.5 5.99991H25.4999L27.0227 1.35041C27.0865 1.14743 27.2759 1 27.5 1C27.7241 1 27.9135 1.14743 27.9773 1.35041L29.5001 5.99991H34.5C34.7763 5.99991 35 6.22371 35 6.4999C35 6.65869 34.9259 6.80001 34.811 6.89149L30.9998 10.0001L31.9859 14.3816C31.9949 14.4194 31.9998 14.4591 31.9998 14.4999C31.9998 14.7762 31.7761 15 31.4998 15C31.3804 15 31.2704 14.958 31.1846 14.8881L27.5 11.9998L23.8154 14.8881Z" fill="#2F80ED"/>
<path d="M43.5002 15C43.6196 15 43.7296 14.958 43.8154 14.8881L47.5 11.9998L51.1846 14.8881C51.2704 14.958 51.3804 15 51.4998 15C51.7761 15 51.9998 14.7762 51.9998 14.4999C51.9998 14.4591 51.9949 14.4194 51.9859 14.3816L50.9998 10.0001L54.811 6.89149C54.9259 6.80001 55 6.65869 55 6.4999C55 6.22371 54.7763 5.99991 54.5 5.99991H49.5001L47.9773 1.35041C47.9135 1.14743 47.7241 1 47.5 1C47.2759 1 47.0865 1.14743 47.0227 1.35041L45.4999 5.99991H40.5C40.2237 5.99991 40 6.22371 40 6.4999C40 6.65869 40.0741 6.80001 40.189 6.89149L44.0002 10.0001L43.0141 14.3816C43.0051 14.4194 43.0002 14.4591 43.0002 14.4999C43.0002 14.7762 43.2239 15 43.5002 15Z" fill="#2F80ED"/>
<path d="M63.8154 14.8881C63.7296 14.958 63.6196 15 63.5002 15C63.2239 15 63.0002 14.7762 63.0002 14.4999C63.0002 14.4591 63.0051 14.4194 63.0141 14.3816L64.0002 10.0001L60.189 6.89149C60.0741 6.80001 60 6.65869 60 6.4999C60 6.22371 60.2237 5.99991 60.5 5.99991H65.4999L67.0227 1.35041C67.0865 1.14743 67.2759 1 67.5 1C67.7241 1 67.9135 1.14743 67.9773 1.35041L69.5001 5.99991H74.5C74.7763 5.99991 75 6.22371 75 6.4999C75 6.65869 74.9259 6.80001 74.811 6.89149L70.9998 10.0001L71.9859 14.3816C71.9949 14.4194 71.9998 14.4591 71.9998 14.4999C71.9998 14.7762 71.7761 15 71.4998 15C71.3804 15 71.2704 14.958 71.1846 14.8881L67.5 11.9998L63.8154 14.8881Z" fill="#2F80ED"/>
<path d="M83.5002 15C83.6196 15 83.7296 14.958 83.8154 14.8881L87.5 11.9998L91.1846 14.8881C91.2704 14.958 91.3804 15 91.4998 15C91.7761 15 91.9998 14.7762 91.9998 14.4999C91.9998 14.4591 91.9949 14.4194 91.9859 14.3816L90.9998 10.0001L94.811 6.89149C94.9259 6.80001 95 6.65869 95 6.4999C95 6.22371 94.7763 5.99991 94.5 5.99991H89.5001L87.9773 1.35041C87.9135 1.14743 87.7241 1 87.5 1C87.2759 1 87.0865 1.14743 87.0227 1.35041L85.4999 5.99991H80.5C80.2237 5.99991 80 6.22371 80 6.4999C80 6.65869 80.0741 6.80001 80.189 6.89149L84.0002 10.0001L83.0141 14.3816C83.0051 14.4194 83.0002 14.4591 83.0002 14.4999C83.0002 14.7762 83.2239 15 83.5002 15Z" fill="#2F80ED"/>
</svg>
