<svg width="16" height="15" viewBox="0 0 16 15" fill="none" xmlns="http://www.w3.org/2000/svg">
<path fill-rule="evenodd" clip-rule="evenodd" d="M4.81199 14.8881C4.72619 14.958 4.61616 15 4.49678 15C4.22048 15 3.99679 14.7762 3.99679 14.5C3.99679 14.4591 4.00169 14.4194 4.01069 14.3816L4.99677 10.0001L1.18557 6.89151C1.07067 6.80003 0.996582 6.65871 0.996582 6.49992C0.996582 6.22373 1.22028 5.99993 1.49657 5.99993H6.49647L8.01927 1.35041C8.08309 1.14743 8.2725 1 8.49658 1C8.72067 1 8.91007 1.14743 8.97389 1.35041L10.4967 5.99993H15.4966C15.7729 5.99993 15.9966 6.22373 15.9966 6.49992C15.9966 6.65871 15.9225 6.80003 15.8076 6.89151L11.9964 10.0001L12.9825 14.3816C12.9915 14.4194 12.9964 14.4591 12.9964 14.5C12.9964 14.7762 12.7727 15 12.4964 15C12.377 15 12.267 14.958 12.1812 14.8881L8.49658 11.9998L4.81199 14.8881Z" fill="#2F80ED"/>
</svg>
