<svg width="15" height="15" viewBox="0 0 15 15" fill="none" xmlns="http://www.w3.org/2000/svg">
<path d="M14.7158 0.689549C14.4599 0.472573 14.058 0.441528 13.6425 0.608354H13.6418C13.2048 0.783708 1.27113 5.90242 0.785324 6.11155C0.696964 6.14225 -0.0747316 6.43019 0.00475789 7.07156C0.0757185 7.64982 0.695941 7.88932 0.771678 7.91695L3.80558 8.95577C4.00687 9.6258 4.74888 12.0978 4.91298 12.6259C5.01532 12.9552 5.18215 13.3877 5.47452 13.4768C5.73107 13.5757 5.98626 13.4853 6.15138 13.3557L8.00624 11.6352L11.0006 13.9704L11.0719 14.0131C11.2752 14.1031 11.47 14.1482 11.6559 14.1482C11.7996 14.1482 11.9374 14.1212 12.0691 14.0673C12.5177 13.8831 12.6971 13.4556 12.7159 13.4072L14.9525 1.78159C15.089 1.16069 14.8993 0.844775 14.7158 0.689549ZM6.48127 9.3713L5.4578 12.1006L4.43433 8.68899L12.2809 2.88933L6.48127 9.3713Z" fill="#2F80ED"/>
</svg>
