<svg width="15" height="15" viewBox="0 0 15 15" fill="none" xmlns="http://www.w3.org/2000/svg">
<path fill-rule="evenodd" clip-rule="evenodd" d="M14.6557 3.60343C14.7599 3.2557 14.6557 3 14.1594 3H12.5186C12.101 3 11.9088 3.22074 11.8047 3.4643C11.8047 3.4643 10.97 5.49893 9.78796 6.82004C9.40544 7.20273 9.23129 7.32434 9.02284 7.32434C8.91858 7.32434 8.7676 7.20273 8.7676 6.85501V3.60343C8.7676 3.1862 8.64641 3 8.29865 3H5.72001C5.45931 3 5.30241 3.19355 5.30241 3.37731C5.30241 3.77328 5.89361 3.86404 5.95419 4.97711V7.39384C5.95419 7.9238 5.85865 8.0201 5.64996 8.0201C5.09384 8.0201 3.74047 5.97627 2.93803 3.6384C2.78065 3.18388 2.62296 3 2.20347 3H0.562368C0.0935381 3 0 3.22074 0 3.4643C0 3.89901 0.556122 6.05513 2.59035 8.90654C3.94636 10.8541 5.85676 11.91 7.59529 11.91C8.63863 11.91 8.7676 11.6755 8.7676 11.2714V9.79977C8.7676 9.33088 8.86613 9.23721 9.19675 9.23721C9.43997 9.23721 9.85757 9.35885 10.831 10.2977C11.9437 11.4108 12.1272 11.91 12.7529 11.91H14.394C14.8629 11.91 15.0975 11.6755 14.9619 11.2127C14.8143 10.7515 14.2829 10.0825 13.5779 9.28923C13.1952 8.83707 12.6216 8.35022 12.4479 8.10677C12.2045 7.79402 12.274 7.65458 12.4479 7.37683C12.4479 7.37683 14.4473 4.55992 14.6557 3.60343Z" fill="#2F80ED"/>
</svg>
