<svg width="15" height="15" viewBox="0 0 15 15" fill="none" xmlns="http://www.w3.org/2000/svg">
<path d="M14.5813 3.91408C14.4426 3.14872 13.7819 2.59135 13.0152 2.41735C11.8679 2.17401 9.74443 2 7.44698 2C5.1509 2 2.99347 2.17401 1.84475 2.41735C1.07939 2.59135 0.417346 3.11338 0.278684 3.91408C0.138662 4.78412 0 6.00217 0 7.56824C0 9.13431 0.138662 10.3524 0.31267 11.2224C0.452692 11.9878 1.11338 12.5451 1.87874 12.7191C3.09679 12.9625 5.18488 13.1365 7.48233 13.1365C9.77977 13.1365 11.8679 12.9625 13.0859 12.7191C13.8513 12.5451 14.512 12.0231 14.652 11.2224C14.7906 10.3524 14.9647 9.09897 15 7.56824C14.9293 6.00217 14.7553 4.78412 14.5813 3.91408ZM5.56824 10.0043V5.13214L9.81376 7.56824L5.56824 10.0043Z" fill="#2F80ED"/>
</svg>
